<svg xmlns="http://www.w3.org/2000/svg" xmlns:xlink="http://www.w3.org/1999/xlink" viewBox="0 0 270.59 125.27"><defs><style>.cls-1{fill:#231f20;}.cls-2{fill:url(#New_Gradient_Swatch_1);}.cls-3{fill:#929497;}</style><linearGradient id="New_Gradient_Swatch_1" x1="270.59" y1="62.4" x2="157.25" y2="62.4" gradientUnits="userSpaceOnUse"><stop offset="0" stop-color="#e90187"/><stop offset="1" stop-color="#cc2142"/></linearGradient></defs><g id="Layer_2" data-name="Layer 2"><g id="Layer_1-2" data-name="Layer 1"><path class="cls-1" d="M23,60.11H13.63V86a1.47,1.47,0,0,1-2.94,0V60.11H1.34a1.34,1.34,0,1,1,0-2.67H23a1.34,1.34,0,1,1,0,2.67Z"/><path class="cls-1" d="M47,87.32a1.12,1.12,0,0,1-.53.13,1.3,1.3,0,0,1-1.25-.8l-3.74-8.24H26.28l-3.7,8.2a1.4,1.4,0,0,1-1.25.84A1.39,1.39,0,0,1,20,86.07a1.31,1.31,0,0,1,.09-.58L32.6,57.88A1.51,1.51,0,0,1,33.89,57a1.53,1.53,0,0,1,1.25.84L47.7,85.49a1.31,1.31,0,0,1,.09.58A1.37,1.37,0,0,1,47,87.32ZM33.89,61.62,27.43,75.87H40.3Z"/><path class="cls-1" d="M77.8,87.45a1.38,1.38,0,0,1-1.38-1.38V64.38C73.93,69.46,66.31,86.7,66.31,86.7a1.32,1.32,0,0,1-1.24.75,1.23,1.23,0,0,1-1.25-.75L53.71,64.43V86a1.46,1.46,0,0,1-1.43,1.42A1.42,1.42,0,0,1,50.9,86V58.42A1.39,1.39,0,0,1,52.28,57a1.43,1.43,0,0,1,1.3.89l11.49,25.2L76.51,57.88a1.39,1.39,0,0,1,2.67.58V86.07A1.38,1.38,0,0,1,77.8,87.45Z"/><path class="cls-1" d="M104.92,87.1H87.15a1.49,1.49,0,0,1-1.47-1.47V58.86a1.44,1.44,0,0,1,1.47-1.42h17.11a1.34,1.34,0,1,1,0,2.67H88.58v10.2h8.86a1.34,1.34,0,1,1,0,2.67H88.58V84.42h16.34a1.34,1.34,0,0,1,0,2.68Z"/><path class="cls-1" d="M120.15,87.68c-3.51,0-9.21-1.43-11.89-4.5a1.51,1.51,0,0,1-.4-1,1.28,1.28,0,0,1,.31-.85,1.36,1.36,0,0,1,.94-.44,1.51,1.51,0,0,1,.93.35,15.36,15.36,0,0,0,10.16,3.79c3.92,0,8.1-1.43,8.1-5.48,0-3.3-3.87-4.59-10.19-6.9-4.06-1.47-8.51-3.25-8.51-8.24,0-5.26,4.85-7.53,10.64-7.53a18.26,18.26,0,0,1,10.2,3.16,1.42,1.42,0,0,1,.58,1.12,1.5,1.5,0,0,1-.22.71,1.37,1.37,0,0,1-1.07.58,1.53,1.53,0,0,1-.76-.22,15.29,15.29,0,0,0-8.73-2.72c-4.09,0-7.75,1.47-7.75,4.9s4.06,4.72,9.62,6.68c5.26,1.82,9.13,3.78,9.13,8.33C131.24,85,126.17,87.68,120.15,87.68Z"/><path class="cls-1" d="M137.88,87.45A1.48,1.48,0,0,1,136.41,86V58.51A1.48,1.48,0,0,1,137.88,57a1.44,1.44,0,0,1,1.42,1.47V86A1.44,1.44,0,0,1,137.88,87.45Z"/><path class="cls-1" d="M156.09,87.68c-3.52,0-9.22-1.43-11.89-4.5a1.46,1.46,0,0,1-.4-1,1.28,1.28,0,0,1,.31-.85,1.36,1.36,0,0,1,.94-.44,1.51,1.51,0,0,1,.93.35,15.36,15.36,0,0,0,10.16,3.79c3.92,0,8.1-1.43,8.1-5.48,0-3.3-3.87-4.59-10.2-6.9-4-1.47-8.5-3.25-8.5-8.24,0-5.26,4.85-7.53,10.64-7.53a18.26,18.26,0,0,1,10.2,3.16,1.42,1.42,0,0,1,.58,1.12,1.5,1.5,0,0,1-.22.71,1.37,1.37,0,0,1-1.07.58,1.53,1.53,0,0,1-.76-.22,15.29,15.29,0,0,0-8.73-2.72c-4.1,0-7.75,1.47-7.75,4.9s4.06,4.72,9.62,6.68c5.26,1.82,9.13,3.78,9.13,8.33C167.18,85,162.1,87.68,156.09,87.68Z"/><path class="cls-2" d="M188.78,123.18a2,2,0,0,0,1.95,1.62,2.2,2.2,0,0,0,.36,0l.45-.13c.27-.09.54-.19.8-.3l70.27-29.16a13,13,0,0,0,7-16.92L240.45,8a13,13,0,0,0-16.93-7L158.78,28.72l-.81.36a1.79,1.79,0,0,0-.72,1.44,1.82,1.82,0,0,0,1.56,1.79h.52l57.39,0a12.47,12.47,0,1,1,.19,24.93H188.72Z"/><path class="cls-3" d="M19.41,124.69H11.34a1.48,1.48,0,0,1-1.47-1.47V96.46A1.45,1.45,0,0,1,11.34,95h8.07c8.9,0,14.38,6.86,14.38,14.83S28.31,124.69,19.41,124.69Zm-.27-27H12.81v24.41h6.33c7.57,0,11.71-5.62,11.71-12.21S26.71,97.66,19.14,97.66Z"/><path class="cls-3" d="M39,125.05a1.49,1.49,0,0,1-1.47-1.47V96.1A1.49,1.49,0,0,1,39,94.63a1.45,1.45,0,0,1,1.43,1.47v27.48A1.45,1.45,0,0,1,39,125.05Z"/><path class="cls-3" d="M71.33,119.31a14.89,14.89,0,0,1-12.11,6c-8.6,0-14.83-7.26-14.83-15.41S50.62,94.5,59.22,94.5a13.81,13.81,0,0,1,10.15,4.14,1.24,1.24,0,0,1,.36.94,1.31,1.31,0,0,1-.31.89,1.16,1.16,0,0,1-.89.35,1.52,1.52,0,0,1-.94-.31,12.58,12.58,0,0,0-8.37-3.38c-7.22,0-11.94,6.1-11.94,12.73S52,122.65,59.22,122.65a11.51,11.51,0,0,0,9.53-4.55v-6.59H60.56a1.33,1.33,0,0,1-1.3-1.33,1.3,1.3,0,0,1,1.3-1.3h9.66a1.53,1.53,0,0,1,1.47,1.52v7.93A1.54,1.54,0,0,1,71.33,119.31Z"/><path class="cls-3" d="M77.79,125.05a1.49,1.49,0,0,1-1.47-1.47V96.1a1.49,1.49,0,0,1,1.47-1.47,1.45,1.45,0,0,1,1.43,1.47v27.48A1.45,1.45,0,0,1,77.79,125.05Z"/><path class="cls-3" d="M104.82,97.71H95.47v25.87a1.47,1.47,0,0,1-2.94,0V97.71H83.18a1.34,1.34,0,0,1,0-2.68h21.64a1.34,1.34,0,1,1,0,2.68Z"/><path class="cls-3" d="M132.52,124.92a1.15,1.15,0,0,1-.53.13,1.3,1.3,0,0,1-1.25-.8L127,116H111.81l-3.69,8.19a1.42,1.42,0,0,1-1.25.85,1.36,1.36,0,0,1-.58-.13,1.39,1.39,0,0,1-.8-1.25,1.31,1.31,0,0,1,.09-.58l12.56-27.61a1.51,1.51,0,0,1,1.29-.85,1.53,1.53,0,0,1,1.25.85l12.56,27.61a1.46,1.46,0,0,1,.08.58A1.39,1.39,0,0,1,132.52,124.92Zm-13.09-25.7L113,113.47h12.87Z"/><path class="cls-3" d="M155,124.69H137.87a1.48,1.48,0,0,1-1.47-1.47V96.1a1.47,1.47,0,0,1,2.94,0V122H155a1.28,1.28,0,0,1,1.34,1.29A1.35,1.35,0,0,1,155,124.69Z"/></g></g></svg>